<svg id="settings" xmlns="http://www.w3.org/2000/svg" width="315.646" height="315.646" viewBox="0 0 315.646 315.646">
  <g id="Group_14" data-name="Group 14">
    <g id="Group_13" data-name="Group 13">
      <g id="Group_12" data-name="Group 12">
        <path id="Path_31" data-name="Path 31" d="M127.615,192.33A12.33,12.33,0,0,0,115.285,180H65.965a12.33,12.33,0,0,0-12.33,12.33v22.119H0v24.66H53.635v21.036a12.33,12.33,0,0,0,12.33,12.33h49.32a12.33,12.33,0,0,0,12.33-12.33V239.108H315.646v-24.66H127.615Zm-24.66,55.485H78.3V204.66h24.66Z" transform="translate(0 -69.031)" fill="#fff2f2"/>
        <path id="Path_32" data-name="Path 32" d="M265.71,374.33A12.33,12.33,0,0,0,253.38,362H204.06a12.33,12.33,0,0,0-12.33,12.33v21.577H0v24.66H191.73v21.577a12.33,12.33,0,0,0,12.33,12.33h49.32a12.33,12.33,0,0,0,12.33-12.33V420.567h49.936v-24.66H265.71Zm-24.66,55.485H216.39V386.66h24.66Z" transform="translate(0 -138.828)" fill="#fff2f2"/>
        <path id="Path_33" data-name="Path 33" d="M266.943,34.524V12.33A12.33,12.33,0,0,0,254.613,0h-49.32a12.33,12.33,0,0,0-12.33,12.33V34.524H0v24.66H192.963V80.144a12.33,12.33,0,0,0,12.33,12.33h49.32a12.33,12.33,0,0,0,12.33-12.33V59.184h48.7V34.524Zm-24.66,33.291h-24.66V24.66h24.66Z" fill="#fff2f2"/>
      </g>
    </g>
  </g>
</svg>
